<svg width="60" height="60" fill="none" xmlns="http://www.w3.org/2000/svg"><path d="M27.21.067C23.512.43 20.202 1.37 16.785 3.048c-3.157 1.562-5.423 3.17-7.9 5.612-2.512 2.477-4.273 4.93-5.846 8.135-1.456 2.958-2.3 5.67-2.83 9.098-.28 1.878-.28 6.315.013 8.217 1.02 6.75 3.874 12.455 8.534 17.127 4.672 4.66 10.354 7.502 17.127 8.546 1.89.282 6.328.282 8.218 0 6.715-1.032 12.478-3.909 17.127-8.546 4.649-4.66 7.513-10.377 8.535-17.127.293-1.902.293-6.34.011-8.217-1.056-6.832-3.932-12.55-8.663-17.222-4.684-4.625-10.319-7.43-16.893-8.428C32.74.02 28.712-.074 27.21.067zm-.517 15.812c.446.247 2.23 1.96 6.715 6.433 3.358 3.358 6.187 6.257 6.292 6.445.282.528.329 1.48.106 2.148-.176.528-.775 1.162-6.41 6.797-4.085 4.086-6.397 6.304-6.738 6.48-1.127.599-2.653.258-3.44-.775-.692-.903-.774-1.948-.258-2.993.165-.317 1.949-2.195 5.2-5.447l4.943-4.966-4.954-4.954c-3.71-3.72-5.013-5.094-5.189-5.494-.281-.622-.328-1.702-.094-2.265.634-1.491 2.43-2.148 3.827-1.409z" fill="#fff"/></svg>