<svg width="108" height="61" viewBox="0 0 108 61" fill="none" xmlns="http://www.w3.org/2000/svg">
<g clip-path="url(#clip0_389_1993)">
<path d="M51.2177 0.117634C47.5198 0.481548 44.2094 1.42068 40.7933 3.09937C37.6355 4.66068 35.3698 6.26894 32.8929 8.71068C30.3807 11.1876 28.6198 13.6411 27.0468 16.8459C25.5912 19.8042 24.7459 22.5159 24.2177 25.9437C23.9359 27.822 23.9359 32.2594 24.2294 34.1611C25.2507 40.9111 28.1033 46.6163 32.7638 51.2885C37.4359 55.9489 43.1177 58.7898 49.8912 59.8346C51.7812 60.1163 56.2185 60.1163 58.1085 59.8346C64.8233 58.8016 70.5872 55.9255 75.2359 51.2885C79.8846 46.6281 82.749 40.9111 83.7703 34.1611C84.0638 32.2594 84.0638 27.822 83.782 25.9437C82.7255 19.1115 79.8494 13.3946 75.1185 8.72242C70.4346 4.0972 64.7999 1.29155 58.2259 0.29372C56.7468 0.0706787 52.7203 -0.0232353 51.2177 0.117634ZM50.7012 15.9302C51.1472 16.1768 52.9316 17.8907 57.4159 22.3633C60.7733 25.7207 63.6025 28.6202 63.7081 28.8081C63.9899 29.3363 64.0368 30.2872 63.8138 30.9563C63.6377 31.4846 63.039 32.1185 57.4042 37.7533C53.319 41.8385 51.0064 44.0572 50.6659 44.2333C49.539 44.832 48.0129 44.4915 47.2264 43.4585C46.5338 42.5546 46.4516 41.5098 46.9681 40.465C47.1325 40.1481 48.9168 38.2698 52.1685 35.0181L57.1107 30.0524L52.1568 25.0985C48.4472 21.3772 47.1442 20.0037 46.9681 19.6046C46.6864 18.9824 46.6394 17.9024 46.8742 17.3389C47.5081 15.8481 49.3042 15.1907 50.7012 15.9302Z" fill="black"/>
</g>
<defs>
<clipPath id="clip0_389_1993">
<rect width="108" height="60.1044" fill="white"/>
</clipPath>
</defs>
</svg>
