<svg width="108" height="61" viewBox="0 0 108 61" fill="none" xmlns="http://www.w3.org/2000/svg">
<g clip-path="url(#clip0_360_1129)">
<path d="M56.7823 0.117634C60.4802 0.481548 63.7906 1.42068 67.2067 3.09937C70.3645 4.66068 72.6302 6.26894 75.1071 8.71068C77.6193 11.1876 79.3802 13.6411 80.9532 16.8459C82.4088 19.8042 83.2541 22.5159 83.7823 25.9437C84.0641 27.822 84.0641 32.2594 83.7706 34.1611C82.7493 40.9111 79.8967 46.6163 75.2362 51.2885C70.5641 55.9489 64.8823 58.7898 58.1088 59.8346C56.2188 60.1163 51.7815 60.1163 49.8915 59.8346C43.1767 58.8016 37.4128 55.9255 32.7641 51.2885C28.1154 46.6281 25.251 40.9111 24.2297 34.1611C23.9362 32.2594 23.9362 27.822 24.218 25.9437C25.2745 19.1115 28.1506 13.3946 32.8815 8.72242C37.5654 4.0972 43.2001 1.29155 49.7741 0.29372C51.2532 0.0706787 55.2797 -0.0232353 56.7823 0.117634ZM57.2988 15.9302C56.8528 16.1768 55.0684 17.8907 50.5841 22.3633C47.2267 25.7207 44.3975 28.6202 44.2919 28.8081C44.0101 29.3363 43.9632 30.2872 44.1862 30.9563C44.3623 31.4846 44.961 32.1185 50.5958 37.7533C54.681 41.8385 56.9936 44.0572 57.3341 44.2333C58.461 44.832 59.9871 44.4915 60.7736 43.4585C61.4662 42.5546 61.5484 41.5098 61.0319 40.465C60.8675 40.1481 59.0832 38.2698 55.8315 35.0181L50.8893 30.0524L55.8432 25.0985C59.5528 21.3772 60.8558 20.0037 61.0319 19.6046C61.3136 18.9824 61.3606 17.9024 61.1258 17.3389C60.4919 15.8481 58.6958 15.1907 57.2988 15.9302Z" fill="black"/>
</g>
<defs>
<clipPath id="clip0_360_1129">
<rect width="108" height="60.1044" fill="white" transform="matrix(-1 0 0 1 108 0)"/>
</clipPath>
</defs>
</svg>
