<svg width="120" height="44" viewBox="0 0 120 44" fill="none" xmlns="http://www.w3.org/2000/svg">
<path d="M12.9035 18.5153V21H8.78118C8.00941 21 7.39765 20.9906 6.94588 20.9718C6.51294 20.9341 5.96706 20.8212 5.30824 20.6329C4.64941 20.4259 4.09412 20.1247 3.64235 19.7294C2.94588 19.0894 2.49412 18.3271 2.28706 17.4424C2.08 16.5388 1.97647 15.4847 1.97647 14.28V1.23529H4.63059V14.2235C4.63059 15.3153 4.75294 16.1718 4.99765 16.7929C5.48706 17.9412 6.51294 18.5153 8.0753 18.5153H12.9035ZM24.1813 1.23529H26.8354V14.7882C26.8354 17.0282 26.2519 18.6753 25.0849 19.7294C23.9366 20.7647 22.1954 21.2824 19.8613 21.2824C17.5272 21.2824 15.786 20.7647 14.6378 19.7294C13.4896 18.6753 12.9154 17.0282 12.9154 14.7882V1.23529H15.5696V15.1553C15.5696 16.4353 15.9554 17.3671 16.7272 17.9506C17.5178 18.5153 18.5531 18.7976 19.8331 18.7976C21.1507 18.7976 22.2049 18.5153 22.9954 17.9506C23.786 17.3671 24.1813 16.4353 24.1813 15.1553V1.23529ZM27.825 11.1176C27.8438 7.97412 28.7097 5.54588 30.4226 3.83294C32.1544 2.10117 34.5356 1.23529 37.5662 1.23529H39.4015V3.72H37.2274C35.1379 3.72 33.5285 4.41647 32.3991 5.80941C31.2885 7.18353 30.7144 8.95294 30.6768 11.1176C30.7144 13.2824 31.2885 15.0612 32.3991 16.4541C33.5285 17.8282 35.1379 18.5153 37.2274 18.5153H39.4015V21H37.5662C34.5356 21 32.1544 20.1435 30.4226 18.4306C28.7097 16.6988 27.8438 14.2612 27.825 11.1176ZM43.0549 21H40.4007V1.23529H43.0549V21ZM46.7078 21H44.1949V8.57647C44.1949 6.54353 44.8443 4.81176 46.1431 3.38117C47.4607 1.95059 49.1549 1.23529 51.2254 1.23529H57.6913V21H55.0372V3.72H51.2254C49.8513 3.72 48.7502 4.1247 47.9219 4.93412C47.1125 5.74353 46.7078 7.03294 46.7078 8.80235V11.2024C47.7619 10.0918 49.2678 9.53647 51.2254 9.53647H53.7949V12.0212H51.2254C50.1337 12.0212 49.2396 12.1529 48.5431 12.4165C47.8654 12.68 47.2537 13.1318 46.7078 13.7718V21ZM11.1529 36.8729H11.3224L13.6376 28.1482C14.1271 26.2659 14.88 24.9765 15.8965 24.28C16.9129 23.5835 18.4471 23.2353 20.4988 23.2353V43H17.8447V26.2282C17.3553 26.4353 16.9788 26.7271 16.7153 27.1035C16.4706 27.48 16.2353 28.0447 16.0094 28.7976L12.48 40.9106H9.99529L6.43765 28.7976C6.21177 28.0259 5.97647 27.4612 5.73177 27.1035C5.48706 26.7271 5.12 26.4353 4.63059 26.2282V43H1.97647V23.2353C4.02824 23.2353 5.55294 23.5929 6.55059 24.3082C7.56706 25.0047 8.32941 26.2847 8.83765 28.1482L11.1529 36.8729ZM37.3524 33.2024C37.3336 32.1482 37.1736 31.1506 36.8724 30.2094C36.5901 29.2682 36.1665 28.4494 35.6018 27.7529C35.056 27.0376 34.3877 26.4729 33.5971 26.0588C32.8065 25.6447 31.9124 25.4376 30.9148 25.4376C29.9171 25.4376 29.023 25.6447 28.2324 26.0588C27.4418 26.4729 26.7642 27.0376 26.1995 27.7529C25.6536 28.4494 25.2301 29.2682 24.9289 30.2094C24.6465 31.1506 24.496 32.1482 24.4771 33.2024C24.496 34.2753 24.6465 35.2729 24.9289 36.1953C25.2301 37.1176 25.6536 37.9176 26.1995 38.5953C26.7642 39.2729 27.4418 39.8094 28.2324 40.2047C29.023 40.6 29.9171 40.7976 30.9148 40.7976C31.9124 40.7976 32.8065 40.6 33.5971 40.2047C34.3877 39.8094 35.056 39.2729 35.6018 38.5953C36.1665 37.9176 36.5901 37.1176 36.8724 36.1953C37.1736 35.2729 37.3336 34.2753 37.3524 33.2024ZM21.6254 33.2024C21.6442 31.64 21.8795 30.2282 22.3313 28.9671C22.783 27.7059 23.4136 26.6329 24.223 25.7482C25.0324 24.8447 26.0018 24.1576 27.1313 23.6871C28.2607 23.1976 29.5218 22.9529 30.9148 22.9529C32.2889 22.9529 33.5407 23.1976 34.6701 23.6871C35.8183 24.1576 36.7971 24.8447 37.6065 25.7482C38.416 26.6329 39.0465 27.7059 39.4983 28.9671C39.9501 30.2282 40.1854 31.64 40.2042 33.2024C40.1854 34.7647 39.9501 36.1671 39.4983 37.4094C39.0654 38.6518 38.4442 39.7059 37.6348 40.5718C36.8254 41.4376 35.8465 42.1059 34.6983 42.5765C33.5689 43.0471 32.3077 43.2824 30.9148 43.2824C29.5218 43.2824 28.2513 43.0471 27.103 42.5765C25.9736 42.1059 25.0042 41.4376 24.1948 40.5718C23.3854 39.7059 22.7548 38.6518 22.303 37.4094C21.8701 36.1671 21.6442 34.7647 21.6254 33.2024ZM43.9968 43H41.3427V23.2353H43.9968V31.5365H52.5803V23.2353H55.2344V43H52.5803V34.0212H43.9968V43ZM72.0863 33.2024C72.0674 32.1482 71.9074 31.1506 71.6063 30.2094C71.3239 29.2682 70.9004 28.4494 70.3357 27.7529C69.7898 27.0376 69.1215 26.4729 68.331 26.0588C67.5404 25.6447 66.6463 25.4376 65.6486 25.4376C64.651 25.4376 63.7568 25.6447 62.9663 26.0588C62.1757 26.4729 61.498 27.0376 60.9333 27.7529C60.3874 28.4494 59.9639 29.2682 59.6627 30.2094C59.3804 31.1506 59.2298 32.1482 59.211 33.2024C59.2298 34.2753 59.3804 35.2729 59.6627 36.1953C59.9639 37.1176 60.3874 37.9176 60.9333 38.5953C61.498 39.2729 62.1757 39.8094 62.9663 40.2047C63.7568 40.6 64.651 40.7976 65.6486 40.7976C66.6463 40.7976 67.5404 40.6 68.331 40.2047C69.1215 39.8094 69.7898 39.2729 70.3357 38.5953C70.9004 37.9176 71.3239 37.1176 71.6063 36.1953C71.9074 35.2729 72.0674 34.2753 72.0863 33.2024ZM56.3592 33.2024C56.378 31.64 56.6133 30.2282 57.0651 28.9671C57.5168 27.7059 58.1474 26.6329 58.9568 25.7482C59.7663 24.8447 60.7357 24.1576 61.8651 23.6871C62.9945 23.1976 64.2557 22.9529 65.6486 22.9529C67.0227 22.9529 68.2745 23.1976 69.4039 23.6871C70.5521 24.1576 71.531 24.8447 72.3404 25.7482C73.1498 26.6329 73.7804 27.7059 74.2321 28.9671C74.6839 30.2282 74.9192 31.64 74.938 33.2024C74.9192 34.7647 74.6839 36.1671 74.2321 37.4094C73.7992 38.6518 73.178 39.7059 72.3686 40.5718C71.5592 41.4376 70.5804 42.1059 69.4321 42.5765C68.3027 43.0471 67.0415 43.2824 65.6486 43.2824C64.2557 43.2824 62.9851 43.0471 61.8368 42.5765C60.7074 42.1059 59.738 41.4376 58.9286 40.5718C58.1192 39.7059 57.4886 38.6518 57.0368 37.4094C56.6039 36.1671 56.378 34.7647 56.3592 33.2024ZM87.0035 40.5153V43H82.8812C82.1094 43 81.4977 42.9906 81.0459 42.9718C80.6129 42.9341 80.0671 42.8212 79.4082 42.6329C78.7494 42.4259 78.1941 42.1247 77.7424 41.7294C77.0459 41.0894 76.5941 40.3271 76.3871 39.4424C76.18 38.5388 76.0765 37.4847 76.0765 36.28V23.2353H78.7306V36.2235C78.7306 37.3153 78.8529 38.1718 79.0977 38.7929C79.5871 39.9412 80.6129 40.5153 82.1753 40.5153H87.0035ZM99.2413 23.2353V24.6471C99.2413 26.9435 98.8084 29.0518 97.9425 30.9718C97.0954 32.8729 95.8531 34.3224 94.2154 35.32V43H91.5613V35.3765C89.9237 34.3976 88.6625 32.9765 87.7778 31.1129C86.8931 29.2306 86.4507 27.16 86.4507 24.9012V23.2353H89.1613V24.6471C89.1613 26.5859 89.4343 28.2518 89.9802 29.6447C90.5449 31.0188 91.5143 32.1482 92.8884 33.0329C95.3543 31.3953 96.5872 28.6 96.5872 24.6471V23.2353H99.2413Z" fill="black"/>
</svg>
